<svg xmlns="http://www.w3.org/2000/svg" xml:space="preserve" width="2666.667" height="2666.667"><path d="M16300 0H0v16300h16300V0" style="fill:#fff;fill-opacity:1;fill-rule:nonzero;stroke:none" transform="matrix(.1636 0 0 -.1636 0 2666.667)"/><path d="M4533.78 10966.6c-182.55 105.4-331.92 364.1-331.92 574.9v1227.4c0 210.9 149.37 297.1 331.92 191.7l1075.29-620.8c182.56-105.4 331.93-364.1 331.93-574.9v-1227.5c0-210.8-149.37-297-331.93-191.6l-1075.29 620.8m1971.43-1138.2c-182.56 105.4-331.92 364.1-331.92 574.9v1227.5c0 210.8 149.36 297 331.92 191.6l1075.29-620.8c182.56-105.4 331.93-364.1 331.93-574.9V9399.2c0-210.8-149.37-297-331.93-191.6l-1075.29 620.8m1971.43-1138.2c-182.56 105.4-331.92 364.1-331.92 574.9v1227.5c0 210.8 149.36 297 331.92 191.6l1075.29-620.8c182.56-105.4 331.92-364.1 331.92-574.9V8261c0-210.8-149.36-297-331.92-191.6l-1075.29 620.8m-3942.86 14.2c-182.55 105.4-331.92 364.1-331.92 574.9v1227.5c0 210.8 149.37 297 331.92 191.6l1075.29-620.8c182.56-105.4 331.93-364.1 331.93-574.9V8275.2c0-210.8-149.37-297-331.93-191.6l-1075.29 620.8m1971.43-1138.2c-182.56 105.4-331.92 364.1-331.92 574.9v1227.5c0 210.7 149.36 297 331.92 191.6l1075.29-620.8c182.56-105.4 331.93-364.1 331.93-574.9V7137c0-210.8-149.37-297-331.93-191.6l-1075.29 620.8M8476.64 6428c-182.56 105.4-331.92 364.1-331.92 574.9v1227.4c0 210.8 149.36 297.1 331.92 191.7l1075.29-620.8c182.56-105.4 331.92-364.1 331.92-575V5998.8c0-210.8-149.36-297-331.92-191.6L8476.64 6428m-3942.86 14.2c-182.55 105.4-331.92 364.1-331.92 574.9v1227.5c0 210.8 149.37 297 331.92 191.6l1075.29-620.8C5791.63 7710 5941 7451.3 5941 7240.5V6013c0-210.8-149.37-297-331.93-191.6l-1075.29 620.8M6505.21 5304c-182.56 105.4-331.92 364.1-331.92 574.9v1227.5c0 210.7 149.36 297 331.92 191.6l1075.29-620.8c182.56-105.4 331.93-364.1 331.93-574.9V4874.8c0-210.8-149.37-297-331.93-191.6L6505.21 5304m1971.43-1138.2c-182.56 105.4-331.92 364.1-331.92 574.9v1227.4c0 210.8 149.36 297.1 331.92 191.7L9551.93 5539c182.56-105.4 331.92-364.1 331.92-574.9V3736.6c0-210.8-149.36-297-331.92-191.6l-1075.29 620.8" style="fill:#1341e8;fill-opacity:1;fill-rule:nonzero;stroke:none" transform="matrix(.13333 0 0 -.13333 0 2666.667)"/><path d="M14059 11764.9c0 210.8 149.4 469.5 331.9 574.9l1075.3 620.8c182.6 105.4 331.9 19.2 331.9-191.7v-1227.4c0-210.8-149.3-469.5-331.9-574.9l-1075.3-620.8c-182.5-105.4-331.9-19.2-331.9 191.6v1227.5m-1971.4-1138.2c0 210.8 149.3 469.5 331.9 574.9l1075.3 620.8c182.5 105.4 331.9 19.2 331.9-191.6v-1227.5c0-210.8-149.4-469.5-331.9-574.9l-1075.3-620.8c-182.6-105.4-331.9-19.2-331.9 191.6v1227.5m-1971.5-1138.2c0 210.8 149.4 469.5 332 574.9l1075.3 620.8c182.5 105.4 331.9 19.2 331.9-191.6V9265.1c0-210.8-149.4-469.5-331.9-574.9l-1075.3-620.8c-182.6-105.4-332-19.2-332 191.6v1227.5m3942.9 14.2c0 210.8 149.4 469.5 331.9 574.9l1075.3 620.8c182.6 105.4 331.9 19.2 331.9-191.6V9279.3c0-210.8-149.3-469.5-331.9-574.9l-1075.3-620.8c-182.5-105.4-331.9-19.2-331.9 191.6v1227.5m-1971.4-1138.2c0 210.8 149.3 469.5 331.9 574.9l1075.3 620.8c182.5 105.4 331.9 19.1 331.9-191.6V8141.1c0-210.8-149.4-469.5-331.9-574.9l-1075.3-620.8c-182.6-105.4-331.9-19.2-331.9 191.6v1227.5m-1971.5-1138.3c0 210.9 149.4 469.6 332 575l1075.3 620.8c182.5 105.4 331.9 19.1 331.9-191.7V7002.9c0-210.8-149.4-469.5-331.9-574.9l-1075.3-620.8c-182.6-105.4-332-19.2-332 191.6v1227.4m3942.9 14.3c0 210.8 149.4 469.5 331.9 574.9l1075.3 620.8c182.6 105.4 331.9 19.2 331.9-191.6V7017.1c0-210.8-149.3-469.5-331.9-574.9l-1075.3-620.8c-182.5-105.4-331.9-19.2-331.9 191.6v1227.5m-1971.4-1138.2c0 210.8 149.3 469.5 331.9 574.9l1075.3 620.8c182.5 105.4 331.9 19.1 331.9-191.6V5878.9c0-210.8-149.4-469.5-331.9-574.9l-1075.3-620.8c-182.6-105.4-331.9-19.2-331.9 191.6v1227.5m-1971.5-1138.2c0 210.8 149.4 469.5 332 574.9l1075.3 620.8c182.5 105.4 331.9 19.1 331.9-191.7V4740.7c0-210.8-149.4-469.5-331.9-574.9L10448.1 3545c-182.6-105.4-332-19.2-332 191.6v1227.5" style="fill:#f21a05;fill-opacity:1;fill-rule:nonzero;stroke:none" transform="matrix(.13333 0 0 -.13333 0 2666.667)"/><path d="M8450.82 15212.7c-180.06 104-180.06 274.1 0 378l1048.43 605.3c180.06 104 474.75 104 654.75 0l1060.6-612.3c180.1-103.9 180.1-274 0-378l-1048.5-605.3c-179.97-104-474.65-104-654.71 0l-1060.57 612.3" style="fill:#ffd939;fill-opacity:1;fill-rule:nonzero;stroke:none" transform="matrix(.13519 0 0 -.13519 0 2666.667)"/><path d="M10539.6 14285.8c-182.6 105.4-182.6 277.8 0 383.2l1063 613.7c182.5 105.4 481.3 105.4 663.8 0l1075.3-620.8c182.6-105.4 182.6-277.8 0-383.2l-1062.9-613.8c-182.6-105.4-481.3-105.4-663.9 0l-1075.3 620.9m1971.4-1138.2c-182.5 105.3-182.5 277.8 0 383.2l1063 613.7c182.6 105.4 481.3 105.4 663.9 0l1075.3-620.8c182.5-105.4 182.5-277.9 0-383.3l-1063-613.7c-182.6-105.4-481.3-105.4-663.9 0l-1075.3 620.9m-5901.95 1145.3c-182.56 105.4-182.56 277.8 0 383.2l1062.99 613.8c182.55 105.4 481.29 105.4 663.84 0l1075.3-620.9c182.56-105.4 182.56-277.8 0-383.2L8348.19 13672c-182.56-105.4-481.29-105.4-663.85 0l-1075.29 620.9m1971.43-1138.2c-182.56 105.4-182.56 277.8 0 383.2l1062.99 613.8c182.56 105.4 481.33 105.4 663.83 0l1075.3-620.9c182.6-105.4 182.6-277.9 0-383.2l-1063-613.8c-182.5-105.4-481.27-105.4-663.83 0l-1075.29 620.9m1971.42-1138.3c-182.6 105.5-182.6 277.9 0 383.3l1063 613.7c182.6 105.4 481.3 105.4 663.8 0l1075.3-620.8c182.6-105.4 182.6-277.8 0-383.2l-1062.9-613.8c-182.6-105.4-481.3-105.4-663.9 0l-1075.3 620.8m-5901.97 1145.4c-182.56 105.4-182.56 277.8 0 383.2l1062.99 613.8c182.55 105.4 481.29 105.4 663.84 0l1075.3-620.9c182.55-105.4 182.55-277.8 0-383.2l-1062.99-613.8c-182.56-105.4-481.3-105.4-663.85 0l-1075.29 620.9m1971.42-1138.2c-182.56 105.4-182.56 277.8 0 383.2l1062.99 613.7c182.56 105.4 481.29 105.4 663.85 0l1075.3-620.8c182.55-105.4 182.55-277.8 0-383.3l-1062.99-613.7c-182.56-105.4-481.3-105.4-663.85 0l-1075.3 620.9m1971.43-1138.2c-182.56 105.4-182.56 277.8 0 383.2l1062.99 613.7c182.56 105.4 481.33 105.4 663.83 0l1075.3-620.8c182.6-105.4 182.6-277.9 0-383.3l-1063-613.7c-182.5-105.4-481.27-105.4-663.83 0l-1075.29 620.9" style="fill:#ffd939;fill-opacity:1;fill-rule:nonzero;stroke:none" transform="matrix(.13333 0 0 -.13333 0 2666.667)"/></svg>